<svg aria-hidden="true" focusable="false" data-prefix="fad" data-icon="phone-laptop" class="svg-inline--fa fa-phone-laptop fa-w-20" role="img" xmlns="http://www.w3.org/2000/svg" viewBox="0 0 640 512"><g class="fa-group"><path class="fa-secondary" fill="#ff8f83" d="M128 64h320v32h64V48a48.1 48.1 0 0 0-47.91-48H111.91A48.1 48.1 0 0 0 64 48v240H16a16 16 0 0 0-16 16v16a64.14 64.14 0 0 0 63.91 64H352v-96H128z" opacity="0.4"></path><path class="fa-primary" fill="#ff8f83" d="M604 128H420a36 36 0 0 0-36 36v312a36 36 0 0 0 36 36h184a36 36 0 0 0 36-36V164a36 36 0 0 0-36-36zm-28 320H448V192h128z"></path></g></svg>